HIERARCHY
ROOT Hips
{
	OFFSET -0.179506 -22.333345 2.821913
	CHANNELS 6 Xposition Yposition Zposition Zrotation Yrotation Xrotation 
	JOINT LeftUpLeg
	{
		OFFSET 6.951974 -9.140623 -0.681533
		CHANNELS 3 Zrotation Yrotation Xrotation
		JOINT LeftLeg
		{
			OFFSET 3.427654 -37.519855 -0.449580
			CHANNELS 3 Zrotation Yrotation Xrotation
			JOINT LeftFoot
			{
				OFFSET -1.359570 -39.796059 -4.369333
				CHANNELS 3 Zrotation Yrotation Xrotation
				JOINT LeftToe
				{
					OFFSET 2.635814 -5.579078 11.928840
					CHANNELS 3 Zrotation Yrotation Xrotation
					End Site
					{
						OFFSET 0.000000 0.000000 0.000000
					}
				}
			}
		}
	}
	JOINT RightUpLeg
	{
		OFFSET -6.767048 -9.052170 -0.431982
		CHANNELS 3 Zrotation Yrotation Xrotation
		JOINT RightLeg
		{
			OFFSET -3.829005 -38.256897 -0.885003
			CHANNELS 3 Zrotation Yrotation Xrotation
			JOINT RightFoot
			{
				OFFSET 1.577377 -39.841461 -4.231180
				CHANNELS 3 Zrotation Yrotation Xrotation
				JOINT RightToe
				{
					OFFSET -2.537174 -4.814398 12.334795
					CHANNELS 3 Zrotation Yrotation Xrotation
					End Site
					{
						OFFSET 0.000000 0.000000 0.000000
					}
				}
			}
		}
	}
	JOINT Spine
	{
		OFFSET -0.253288 10.896323 -2.669631
		CHANNELS 3 Zrotation Yrotation Xrotation
		JOINT Spine1
		{
			OFFSET 0.548704 13.518043 0.109247
			CHANNELS 3 Zrotation Yrotation Xrotation
			JOINT Spine2
			{
				OFFSET 0.145701 5.292222 2.542457
				CHANNELS 3 Zrotation Yrotation Xrotation
				JOINT Neck
				{
					OFFSET -0.277840 21.387037 -4.285703
					CHANNELS 3 Zrotation Yrotation Xrotation
					JOINT Head
					{
						OFFSET 0.515184 6.496960 5.134897
						CHANNELS 3 Zrotation Yrotation Xrotation
						End Site
						{
							OFFSET 0.000000 0.000000 0.000000
						}
					}
				}
				JOINT LeftShoulder
				{
					OFFSET 7.884473 12.174932 -3.408961
					CHANNELS 3 Zrotation Yrotation Xrotation
					JOINT LeftArm
					{
						OFFSET 9.097692 3.046888 -0.886815
						CHANNELS 3 Zrotation Yrotation Xrotation
						JOINT LeftForeArm
						{
							OFFSET 25.961220 -1.277207 -2.745643
							CHANNELS 3 Zrotation Yrotation Xrotation
							JOINT LeftHand
							{
								OFFSET 24.923361 0.898606 -0.117091
								CHANNELS 3 Zrotation Yrotation Xrotation
								End Site
								{
									OFFSET 0.000000 0.000000 0.000000
								}
							}
						}
					}
				}
				JOINT RightShoulder
				{
					OFFSET -8.175920 11.883285 -3.861528
					CHANNELS 3 Zrotation Yrotation Xrotation
					JOINT RightArm
					{
						OFFSET -9.601238 3.255117 -0.914307
						CHANNELS 3 Zrotation Yrotation Xrotation
						JOINT RightForeArm
						{
							OFFSET -25.374195 -1.332924 -2.140099
							CHANNELS 3 Zrotation Yrotation Xrotation
							JOINT RightHand
							{
								OFFSET -25.529810 0.777228 -0.555919
								CHANNELS 3 Zrotation Yrotation Xrotation
								End Site
								{
									OFFSET 0.000000 0.000000 0.000000
								}
							}
						}
					}
				}
			}
		}
	}
}
MOTION
Frames: 18
Frame Time: 0.033333
-48.897251 49.695759 87.441925 -111.254269 -1.680559 89.410058 3.592639 0.719086 26.819957 -4.568316 -25.664681 13.007040 -5.508894 9.459207 -20.885214 nan nan nan -9.389960 -2.104925 -34.350848 4.848422 -6.280334 14.502719 -0.824086 -10.433696 -12.004088 nan nan nan -4.279266 -8.976022 14.124794 8.623579 -5.191038 11.083968 4.982575 -7.220648 -3.847425 -3.040757 2.446527 -5.887600 2.063271 -2.903660 -12.723440 -14.505749 -1.384867 -0.292956 -57.533748 -24.310143 16.732210 33.929652 -44.815726 -21.587688 -11.443086 -22.068472 -0.646799 22.877276 -6.136568 -4.019521 49.940881 -16.097295 11.505488 -11.959521 16.570360 3.978478 25.546587 10.387848 -3.532682 
-50.227249 50.852356 87.182220 -111.202445 -1.344817 89.591872 4.005283 0.364074 26.762011 -4.851900 -25.541208 14.788909 -5.765156 9.199834 -19.850545 nan nan nan -9.110883 -1.897259 -35.172089 5.067496 -7.120458 17.215593 -1.011040 -9.936172 -10.294035 nan nan nan -3.796562 -9.292690 13.535167 8.813615 -5.055318 11.360528 4.886792 -7.256208 -4.059406 -3.332111 2.437569 -5.471117 1.888654 -3.191758 -13.253332 -14.802252 -1.317325 -0.280600 -57.334278 -24.046284 16.625349 34.162601 -45.218992 -21.560806 -11.672315 -22.170530 -0.728547 22.821722 -5.979923 -3.784363 49.592865 -16.104339 11.186568 -12.151386 16.237993 3.706410 25.375009 10.639952 -3.978207 
-51.606224 52.053368 86.968239 -111.281839 -1.073234 89.690853 4.273029 0.023443 26.739873 -5.145738 -25.141944 16.659736 -5.949063 9.168260 -18.654143 nan nan nan -8.872357 -1.697539 -35.861420 5.224047 -7.935429 20.043839 -1.295498 -9.271519 -8.682168 nan nan nan -3.344744 -9.539653 12.839518 8.941076 -4.952732 12.028901 4.734599 -7.196026 -4.565032 -3.501906 2.610995 -5.114057 1.666097 -3.313844 -13.602763 -15.192951 -1.203840 -0.198716 -56.948086 -23.816433 16.407760 34.041131 -45.594247 -21.419511 -12.276640 -22.225808 -0.404547 22.948681 -5.886884 -3.431537 49.110168 -15.988783 10.862459 -12.269864 15.924056 3.238139 25.563361 10.819527 -4.085925 
-53.000393 53.313446 86.820648 -111.492943 -0.713541 89.736380 4.543546 -0.417484 26.715909 -5.537922 -24.615478 18.626897 -6.162289 9.326636 -17.258649 nan nan nan -8.512970 -1.390658 -36.390126 5.300568 -8.676442 22.774041 -1.761192 -8.552683 -7.359551 nan nan nan -2.861668 -9.659328 12.107311 9.084961 -4.770274 12.879223 4.638224 -7.127275 -5.223603 -3.713433 2.772248 -4.774126 1.470528 -3.480267 -13.713437 -15.737670 -1.169567 -0.049259 -56.524926 -23.515383 16.283196 33.904345 -45.846748 -21.343502 -12.843693 -22.165997 0.005547 23.226020 -5.708336 -3.042007 48.524397 -15.980882 10.774156 -12.415737 15.554864 2.844262 25.485101 11.137568 -4.178346 
-54.390770 54.593307 86.729301 -111.824080 -0.235656 89.805479 4.912487 -0.830406 26.437108 -6.123311 -23.965000 20.942511 -6.484155 9.465200 -15.401302 nan nan nan -8.005758 -0.906069 -36.803350 5.362631 -9.287566 25.248905 -2.283434 -8.359402 -6.745447 nan nan nan -2.297477 -9.759233 11.256454 9.207843 -4.573457 13.825290 4.592873 -6.966665 -5.757349 -3.998617 3.033592 -4.519124 1.301773 -3.488930 -13.897052 -16.457680 -1.314358 0.008406 -56.025214 -22.951337 16.185877 33.858536 -46.175545 -21.498017 -13.179854 -21.978467 0.257254 23.433041 -5.420929 -2.795617 48.010641 -15.975866 10.715572 -12.526208 15.186587 2.407495 25.320507 11.269714 -4.327097 
-55.778938 55.859779 86.679367 -112.305410 0.407647 89.826507 5.505063 -0.962612 25.869124 -6.799484 -23.073207 23.697416 -6.995617 9.447206 -13.007696 nan nan nan -7.412147 -0.326984 -37.058535 5.811340 -9.793074 27.473768 -2.970875 -8.449968 -6.795945 nan nan nan -1.463927 -9.955726 10.544545 9.212769 -4.334286 14.540555 4.514028 -6.650754 -6.148962 -4.223891 3.490253 -4.327454 0.848927 -3.364552 -13.898253 -17.263108 -1.560429 0.157771 -55.502309 -22.278343 15.858656 33.563612 -46.474689 -21.421431 -13.478554 -22.043661 0.536484 23.444757 -4.942388 -2.352524 47.748901 -15.828010 10.251896 -12.591859 14.722249 1.749749 25.101276 11.247855 -4.163300 
-57.144047 57.107430 86.653763 -112.977182 1.073424 89.775384 6.107539 -1.019397 25.083438 -7.681029 -21.927775 26.828124 -7.503652 9.381154 -10.584777 nan nan nan -6.820043 0.354614 -37.140802 6.685802 -10.026307 29.323384 -3.792127 -8.451953 -6.997343 nan nan nan -0.598007 -10.072726 10.055208 9.147366 -4.046809 15.064845 4.414955 -6.260361 -6.522893 -4.341381 3.728506 -4.208485 0.438936 -3.284837 -13.692816 -17.970226 -1.802219 0.508246 -55.173745 -21.611007 15.603672 33.420308 -46.640515 -21.291839 -13.579612 -22.051485 0.438825 23.409049 -4.425013 -1.603033 47.710503 -15.523383 9.845705 -12.778816 14.280880 1.531681 24.587541 11.213368 -4.186038 
-58.468674 58.317604 86.652786 -113.623280 1.514252 89.749282 6.360582 -1.158078 24.006570 -8.449527 -20.418005 30.118737 -7.843540 9.322209 -8.563657 nan nan nan -6.298886 0.946575 -37.169343 7.391869 -10.142397 30.988326 -4.741172 -8.406835 -7.670827 nan nan nan 0.009290 -10.030042 9.644269 9.033781 -3.791887 15.477263 4.344289 -5.932197 -6.869437 -4.628782 3.962734 -4.063212 0.265195 -3.052362 -13.704852 -18.551616 -2.069615 0.855216 -54.965314 -20.846804 15.529847 33.426706 -46.684400 -21.183990 -14.055611 -21.939054 0.307765 23.512514 -3.912418 -1.002787 47.756644 -15.317107 9.982697 -13.243074 13.904230 1.488333 24.237798 11.275855 -4.838719 
-59.787575 59.482784 86.682869 -114.259525 1.561379 89.567627 6.021383 -1.351327 22.898465 -9.018713 -18.559523 33.453908 -7.813559 9.464748 -6.490934 nan nan nan -5.927041 1.338572 -36.978996 7.719309 -10.114492 32.678417 -5.783509 -8.390821 -8.835781 nan nan nan 0.226075 -9.791245 9.416350 8.795123 -3.609559 15.809037 4.242052 -5.721420 -7.040630 -5.220754 4.625606 -4.051149 0.241947 -2.414441 -13.952328 -18.845690 -2.222648 0.948226 -54.926750 -20.124905 15.581340 33.027168 -46.589497 -20.816519 -14.585727 -21.727936 0.251015 23.830734 -3.467065 -0.828112 47.685618 -15.026525 10.478181 -13.610233 13.435855 1.075246 24.160558 11.212113 -4.941376 
-61.080009 60.634201 86.737930 -114.940365 1.439184 89.182362 5.368252 -1.632743 21.827701 -9.549940 -16.696993 36.818111 -7.380493 10.201457 -4.217952 nan nan nan -5.502850 1.617605 -36.385249 7.902988 -9.752362 34.150714 -6.997462 -8.542515 -9.883102 nan nan nan 0.254660 -9.308461 9.591231 8.578692 -3.545696 15.903727 4.281939 -5.498240 -7.262867 -4.302861 2.968111 -3.580947 0.325488 -2.617534 -13.252992 -19.244008 -2.354350 1.380904 -54.936633 -19.644940 15.337000 32.320797 -46.333936 -20.226096 -14.828270 -21.627544 0.174245 23.514078 -3.111072 -0.723206 48.080784 -14.685273 10.480344 -13.737764 13.027512 0.947386 24.124209 11.243486 -4.355637 
-62.316212 61.754856 86.809341 -115.505720 1.270667 88.887891 4.693889 -1.920733 20.419525 -9.881945 -14.845287 40.220971 -6.657827 11.006960 -1.969345 nan nan nan -5.050495 1.754368 -35.710702 7.971766 -9.308352 35.339389 -7.897783 -8.685502 -10.895412 nan nan nan 0.378071 -8.741581 9.914978 8.214564 -3.452102 15.569987 4.146774 -5.343081 -7.236840 -4.064017 2.225702 -3.507388 0.497743 -2.432116 -12.735992 -19.279950 -2.446839 1.494643 -55.212595 -19.097310 15.423598 31.268168 -45.932211 -18.947405 -14.795559 -21.733737 -0.289347 23.392807 -2.988000 -0.898944 48.452561 -14.259787 10.660723 -13.681424 12.650171 0.758812 23.957772 11.156933 -3.747273 
-63.496159 62.843060 86.930725 -115.955258 1.136686 88.551975 4.220877 -2.020221 18.891731 -10.073244 -13.196413 43.555741 -5.880383 11.583277 0.140299 nan nan nan -4.623060 1.911662 -34.778806 7.990387 -9.007543 36.110480 -8.657902 -8.929691 -11.762281 nan nan nan 0.446499 -8.159157 10.500478 7.895066 -3.278985 15.012073 4.072835 -5.284321 -7.184826 -3.993046 2.045010 -3.600388 0.500596 -2.023182 -12.565308 -19.253490 -2.412956 1.544072 -55.608401 -18.656934 15.655214 29.990625 -45.426509 -17.310587 -14.968682 -21.727615 -0.855978 23.290809 -2.871174 -1.052401 48.854430 -13.788263 11.133480 -13.650232 12.392274 0.796187 23.805595 11.120648 -4.087763 
-64.619911 63.985138 87.106987 -116.492865 1.177633 88.151945 4.039099 -2.040626 17.452916 -10.346503 -11.742928 46.735301 -5.550805 12.470277 -0.333953 nan nan nan -4.012027 2.348623 -33.598703 7.919431 -8.876905 36.546110 -9.197020 -9.164820 -12.509162 nan nan nan 0.566244 -7.512749 10.954212 7.686315 -3.030625 14.733603 3.979532 -5.248236 -7.003629 -3.645908 1.853227 -3.702622 0.382866 -2.045604 -12.512456 -19.346955 -2.339615 1.574641 -55.930809 -18.469654 15.934962 28.737935 -44.743361 -15.741669 -15.553311 -21.560498 -0.890041 23.340536 -2.635227 -1.382522 49.236490 -13.379877 11.441321 -13.720919 12.329905 0.966352 23.677584 11.286234 -5.012913 
-65.712708 65.157326 87.334862 -116.975000 1.319870 87.874151 3.870991 -2.349503 15.950819 -10.564073 -10.294910 49.583280 -5.137097 13.312724 -1.536793 nan nan nan -3.248134 2.885642 -32.261055 7.687905 -8.769289 36.587335 -9.611051 -9.276963 -13.194538 nan nan nan 0.735077 -6.880650 11.081637 7.561923 -2.865527 14.825490 3.842918 -5.135290 -6.892331 -3.401398 1.521403 -3.690289 0.528428 -2.340329 -12.794204 -19.446552 -2.168182 1.566268 -56.311207 -18.435038 16.247384 27.338629 -44.009550 -14.265567 -16.274685 -21.414962 -0.547093 23.487834 -2.476329 -1.793121 49.473196 -13.002003 11.572565 -13.692501 12.670200 0.999643 23.561983 11.435891 -5.403644 
-66.792473 66.313728 87.630287 -117.340207 1.415539 87.855479 3.746595 -2.702650 14.090493 -10.907762 -8.984848 52.263541 -4.491290 14.046887 -3.381541 nan nan nan -2.525360 3.278450 -30.961413 7.461418 -8.598865 36.287934 -9.851765 -9.413312 -13.668022 nan nan nan 0.864095 -6.349782 10.917772 7.523921 -2.800604 15.069922 3.684257 -4.940135 -7.048008 -3.446799 1.084372 -3.388297 0.776590 -2.607586 -13.338306 -19.731231 -1.928040 1.713373 -56.593856 -18.311931 16.356585 25.852467 -43.391999 -12.838756 -17.022542 -20.997867 0.154942 23.439226 -2.355124 -1.861669 49.924619 -12.556579 11.266649 -13.630944 13.340334 1.052385 23.428269 11.411363 -5.389770 
-67.863678 67.456161 87.969238 -117.662963 1.549258 87.923767 3.869965 -2.984927 12.043388 -11.395192 -7.792010 54.728899 -3.882865 14.488268 -5.303441 nan nan nan -1.701692 3.657263 -29.632342 7.208928 -8.271090 35.789200 -10.095855 -9.668607 -13.907139 nan nan nan 0.953065 -5.821535 10.529894 7.551636 -2.766941 15.447403 3.588971 -4.730118 -7.214167 -3.286857 0.806169 -3.119341 0.838161 -2.551614 -13.525312 -20.111383 -1.807213 1.927452 -56.882090 -18.109630 16.328281 24.451339 -42.754464 -11.305930 -17.804778 -20.383551 0.980887 23.181470 -2.176431 -1.756324 50.558458 -12.052425 10.993273 -13.511139 14.115240 1.210856 23.363956 11.550690 -5.782997 
-68.936050 68.576546 88.343430 -118.090514 1.571597 87.800738 3.849187 -3.141528 10.169692 -11.593360 -6.574293 56.832730 -3.349900 14.729768 -7.001037 nan nan nan -0.876446 3.938624 -28.052963 6.960783 -7.646767 35.169797 -10.129649 -10.011463 -14.085777 nan nan nan 0.970671 -5.045953 10.158323 7.484525 -2.782895 16.066703 3.575677 -4.598958 -7.313752 -2.913483 0.618787 -2.987061 0.642058 -2.475511 -13.422969 -20.482276 -2.026720 2.028928 -57.150065 -17.587750 16.327028 23.321355 -42.118773 -10.123349 -18.039877 -19.878280 1.689214 23.020318 -1.782833 -1.951647 51.073806 -11.849923 11.000752 -13.493508 15.084092 0.983525 22.804999 11.915133 -6.564426 
-70.016052 69.633698 88.759285 -118.706902 1.497925 87.522947 3.613025 -3.187591 8.449713 -11.609193 -5.413531 58.504128 -2.845777 15.027828 -8.305129 nan nan nan -0.160475 4.198242 -26.261983 6.802049 -6.864373 34.343317 -10.012882 -10.308736 -14.302721 nan nan nan 1.033920 -4.245882 10.228226 7.266855 -2.772223 16.373914 3.499132 -4.400565 -7.376925 -2.714554 0.500197 -2.965738 0.514692 -2.441567 -13.376361 -20.810641 -2.076604 2.083395 -57.476936 -17.056171 16.405807 22.152024 -41.376441 -8.814987 -18.046472 -19.431413 2.350526 23.015459 -1.446910 -1.969070 51.441117 -11.522291 10.948705 -13.526032 16.330972 0.471033 21.887140 12.301418 -7.436966 
